# xmcd
#
# Track frame offsets: 
#        150
#        24065
#        33452
#        37507
#        54999
#        57350
#        80489
#        83344
#        95243
#        115427
#        133328
#        149345
#        166654
#        169746
#        178653
#        193136
#        200532
#        223163
#        234248
#        237933
#        252613
#        253839
#        267097
#        274435
#        298066
#        303501
#
# Disc length: 4277 seconds
#
# Revision: 0
# Processed by: cddbd v1.4PL0 Copyright (c) Steve Scherf et al.
# Submitted via: ExactAudioCopy v0.90a11
#
DISCID=7d10b31a
DTITLE=Wayne 'The Train' Hancock, 2002-01-05, csb, pcm-m1, DAT, - Beac
DTITLE=hland Ballroom Tavern, Cleveland, Ohio, wtth2002-01-05d02, 02, 
DTITLE=loadstone,
DYEAR=1900
DGENRE=
TTITLE0=, Drive On,
TTITLE1=, Locomotive Joe,
TTITLE2=, wayne talk'n...,
TTITLE3=, Honkey Tonk Blues,
TTITLE4=, tune up,
TTITLE5=, Johnson City,
TTITLE6=, ichy ear,
TTITLE7=, Pour Boy Blues,
TTITLE8=, California  Blues,
TTITLE9=, Why Don't You Leave Me Alone,
TTITLE10=, Highway 54,
TTITLE11=, Table 34,
TTITLE12=, brokenspoke...,
TTITLE13=, A Town Blues,
TTITLE14=, Livin Life on Road,
TTITLE15=, history channel...,
TTITLE16=, Kansas City,
TTITLE17=, Happy Birthday Julie,
TTITLE18=, night of celebration...,
TTITLE19=, Beautiful Dream,
TTITLE20=, last song...,
TTITLE21=, Thats What Daddy Wants,
TTITLE22=, got another Coke...,
TTITLE23=, Surrounded By Alcohol,
TTITLE24=, alcoholics singing about booze...,
TTITLE25=, Jambalya,
EXTD=
EXTT0=
EXTT1=
EXTT2=
EXTT3=
EXTT4=
EXTT5=
EXTT6=
EXTT7=
EXTT8=
EXTT9=
EXTT10=
EXTT11=
EXTT12=
EXTT13=
EXTT14=
EXTT15=
EXTT16=
EXTT17=
EXTT18=
EXTT19=
EXTT20=
EXTT21=
EXTT22=
EXTT23=
EXTT24=
EXTT25=
PLAYORDER=
